<?xml version="1.0"?>
<svg xmlns="http://www.w3.org/2000/svg" xmlns:xlink="http://www.w3.org/1999/xlink" xmlns:svgjs="http://svgjs.com/svgjs" version="1.1" width="512" height="512" x="0" y="0" viewBox="0 0 512 512" style="enable-background:new 0 0 512 512" xml:space="preserve"><g><g xmlns="http://www.w3.org/2000/svg" id="G"><path d="m275.211 512c133.049 0 217.325-79.228 220.84-81.361v-206.426h-239.458v108.208h111.299v36.152c-23.379 15.762-60.996 32.314-98.921 32.314-79.248 0-122.886-53.364-122.886-150.264 0-89.971 43.989-139.512 123.867-139.512 47.783 0 82.031 22.983 93.97 63.047l3.823 12.861 125.156-22.573c-10.278-24.273-19.594-164.446-222.948-164.446-154.307 0-254.004 100.478-254.004 254.418 0 155.874 101.762 257.582 259.262 257.582z" fill="#ffffff" data-original="#000000" style=""/></g></g></svg>
